<?xml version="1.0" encoding="UTF-8"?>
<svg xmlns="http://www.w3.org/2000/svg" viewBox="0 0 253.728 219.264">
  <defs>
    <style>
      .cls-1, .cls-2 {
        stroke: #000;
        stroke-miterlimit: 10;
      }

      .cls-2 {
        fill: #fff;
      }
    </style>
  </defs>
  <g id="Layer_1" data-name="Layer 1">
    <path class="cls-2" d="m127.477,50.706s63.11-111.495,124.117-2.104c16.595,29.757-98.119,128.494-124.117,170.398"/>
    <path class="cls-2" d="m126.235,50.683S63.124-60.812,2.118,48.579c-16.595,29.757,99.361,128.517,125.359,170.421"/>
  </g>
  <g id="Layer_2" data-name="Layer 2">
    <path class="cls-1" d="m127.469,51.512s62.679-110.733,123.269-2.089c16.482,29.554-97.448,127.615-123.269,169.233"/>
    <path class="cls-1" d="m126.235,51.489S63.556-59.244,2.966,49.4c-16.482,29.554,98.682,127.638,124.502,169.256"/>
    <path d="m129.493,153.477c-3.263-25.601-3.883-51.524-1.814-77.25.591-7.355,1.401-14.691,2.432-21.997.114-.808-.198-1.601-1.048-1.845-.701-.201-1.732.247-1.845,1.048-3.65,25.854-4.654,52.053-2.876,78.106.5,7.332,1.222,14.648,2.151,21.939.241,1.889,3.244,1.913,3,0h0Z"/>
    <path d="m123.451,121.885c1.47.111,2.842,1.079,3.388,2.462.51,1.292,2.484,1.55,2.893,0,1.154-4.37,1.516-8.895,1.024-13.389-.174-1.596-2.459-2.139-2.946-.399-.709,2.529-1.418,5.058-2.128,7.587l2.946.399c.236-6.575.473-13.15.709-19.726h-3l.049,18.204h3c-.979-9.753-.52-19.595,1.429-29.203.381-1.878-2.464-2.691-2.893-.798-.61,2.695-.872,5.438-.747,8.199h3l-1.335-15.156c-.167-1.891-3.046-1.96-3,0,.344,14.718-.121,29.446-1.391,44.113h3l.133-3.422h-3c-.445,15.099.011,30.214,1.366,45.258.17,1.893,3.1,1.951,3,0-.546-10.671-.122-21.367,1.265-31.962h-3c-.621,10.833-1.69,21.639-3.231,32.38l2.946.399-.098-59.691c-.009-5.637-.018-11.275-.028-16.912-.003-1.646-2.599-2.097-2.946-.399-1.607,7.859-2.166,15.89-1.61,23.894.112,1.605,2.536,2.135,2.946.399,2.287-9.67,3.896-19.496,4.809-29.39.457-4.96.737-9.936.838-14.916.051-2.49.056-4.981.017-7.471-.035-2.223.04-4.529-.351-6.726-.349-1.958-1.422-3.805-3.375-4.488-1.788-.626-3.896-.106-4.836,1.617-.497.91-.019,1.86.896,2.203,2.034.763,4.067,1.526,6.101,2.289l.399-2.946c-4.583.277-8.976,1.341-13.195,3.143-1.478.631-.575,2.724.757,2.795,4.286.229,8.571.458,12.857.688l-.399-2.946c-2.483.798-5.001,1.155-7.608,1.072-1.693-.053-2.034,2.522-.399,2.946,2.535.657,5.07.744,7.652.345l-1.459-2.507c-3.187,2.519-5.884,5.564-8.047,9.002-.524.833-.007,1.942.896,2.203,8.756,2.536,18.087,2.597,26.878.188,1.869-.512,1.082-3.312-.798-2.893-4.522,1.009-8.654,3.145-12.151,6.175-.898.778-.339,2.184.662,2.507,5.715,1.842,11.429,3.684,17.144,5.527l-.662-2.507c-7.245,5.707-14.25,11.715-20.98,18.021-1.668,1.563-3.319,3.143-4.954,4.742-1.371,1.341-2.89,2.71-3.743,4.462-1.79,3.676.438,7.022,3.747,8.758,4.193,2.199,9.082,2.719,13.688,1.766l-1.459-2.507c-11.255,10.37-20.576,22.782-27.387,36.486-.853,1.716,1.671,3.228,2.59,1.514,7.468-13.926,10.151-29.645,11.635-45.209.425-4.464.755-8.936,1.078-13.409h-3c.101,15.928.201,31.855.302,47.783h3c-.642-17.77-.461-35.566.564-53.319.294-5.095.659-10.186,1.089-15.272h-3c1.681,20.468,1.263,41.076-1.247,61.459h3c-.537-17.938-.71-35.885-.519-53.829h-3c.004,17.706.007,35.413.011,53.119h3c-.02-17.371-.041-34.741-.061-52.112h-3c.398,16.046,1.9,32.049,4.46,47.894.255,1.58,2.462,1.263,2.893,0,2.129-6.239,2.845-12.9,2.069-19.447l-2.946.399,1.362,4.476c.56,1.842,3.457,1.057,2.893-.798l-1.362-4.476c-.468-1.539-3.154-1.349-2.946.399.749,6.315.092,12.631-1.961,18.65h2.893c-2.517-15.58-3.961-31.32-4.353-47.097-.048-1.926-3.002-1.937-3,0,.02,17.371.041,34.741.061,52.112.002,1.93,3,1.934,3,0-.004-17.706-.007-35.413-.011-53.119,0-1.931-2.979-1.933-3,0-.191,17.945-.018,35.892.519,53.829.059,1.981,2.77,1.87,3,0,2.51-20.383,2.928-40.991,1.247-61.459-.158-1.929-2.837-1.929-3,0-1.497,17.718-2.173,35.503-2.005,53.284.048,5.104.168,10.206.352,15.306.069,1.923,3.012,1.939,3,0-.101-15.928-.201-31.855-.302-47.783-.012-1.95-2.862-1.908-3,0-1.1,15.234-2.255,30.708-7.19,45.273-1.382,4.08-3.078,8.033-5.113,11.83l2.59,1.514c6.708-13.499,15.832-25.665,26.917-35.879,1.17-1.078-.08-2.793-1.459-2.507-3.621.749-7.506.373-10.865-1.212-1.255-.592-2.73-1.434-3.291-2.784-.614-1.478.484-2.963,1.429-4.007,2.618-2.891,5.603-5.515,8.465-8.161,2.894-2.675,5.837-5.297,8.828-7.864,3.469-2.978,7.004-5.878,10.595-8.707.945-.744.301-2.197-.662-2.507-5.715-1.842-11.429-3.684-17.144-5.527l.662,2.507c3.112-2.696,6.815-4.508,10.827-5.403l-.798-2.893c-8.292,2.272-17.026,2.204-25.283-.188l.896,2.203c2.032-3.229,4.586-6.03,7.578-8.395,1.321-1.044-.183-2.704-1.459-2.507-2.034.314-4.071.17-6.057-.345l-.399,2.946c2.853.09,5.688-.306,8.405-1.18,1.627-.523,1.302-2.855-.399-2.946-4.286-.229-8.571-.458-12.857-.688l.757,2.795c3.701-1.581,7.667-2.491,11.681-2.734,1.732-.105,1.982-2.353.399-2.946-2.034-.763-4.067-1.526-6.101-2.289l.896,2.203c.642-1.176,2.104.205,2.403.93.655,1.588.488,3.544.53,5.225.109,4.337.081,8.677-.082,13.012-.321,8.536-1.163,17.054-2.545,25.484-.793,4.837-1.762,9.642-2.89,14.412l2.946.399c-.538-7.738-.051-15.496,1.503-23.096l-2.946-.399.098,59.691c.009,5.637.018,11.275.028,16.912.003,1.628,2.7,2.119,2.946.399,1.579-11.008,2.702-22.075,3.338-33.178.113-1.973-2.757-1.855-3,0-1.387,10.595-1.81,21.291-1.265,31.962h3c-1.355-15.045-1.811-30.159-1.366-45.258.057-1.933-2.925-1.926-3,0l-.133,3.422c-.076,1.951,2.836,1.897,3,0,1.27-14.667,1.735-29.395,1.391-44.113h-3l1.335,15.156c.167,1.894,3.089,1.952,3,0-.114-2.502.086-4.958.64-7.402l-2.893-.798c-2.003,9.87-2.543,19.978-1.536,30,.189,1.881,3.005,1.97,3,0-.016-6.068-.033-12.136-.049-18.204-.005-1.936-2.931-1.926-3,0-.236,6.575-.473,13.15-.709,19.726-.061,1.709,2.494,2.012,2.946.399.709-2.529,1.418-5.058,2.128-7.587l-2.946-.399c.464,4.243.173,8.463-.917,12.592h2.893c-1.069-2.709-3.365-4.444-6.281-4.665-1.926-.146-1.916,2.855,0,3h0Z"/>
  </g>
</svg>